<?xml version="1.0" standalone="no"?>
<!DOCTYPE svg PUBLIC "-//W3C//DTD SVG 20010904//EN"
 "http://www.w3.org/TR/2001/REC-SVG-20010904/DTD/svg10.dtd">
<svg version="1.0" xmlns="http://www.w3.org/2000/svg"
 width="700.000000pt" height="700.000000pt" viewBox="0 0 700.000000 700.000000"
 preserveAspectRatio="xMidYMid meet">
<metadata>
Created by potrace 1.11, written by Peter Selinger 2001-2013
</metadata>
<g transform="translate(0.000000,700.000000) scale(0.100000,-0.100000)"
fill="#000000" stroke="none">
<path d="M2890 5629 c-36 -10 -74 -21 -85 -24 -66 -15 -295 -85 -314 -94 -25
-14 -44 -56 -36 -81 14 -45 51 -57 188 -61 37 -1 70 -5 72 -9 2 -3 32 -100 67
-216 l64 -209 -88 -43 c-99 -49 -226 -132 -307 -200 -67 -57 -169 -159 -189
-190 -8 -13 -21 -21 -28 -18 -7 3 -101 67 -209 143 l-196 138 6 45 c7 64 14
108 25 163 14 67 12 89 -8 115 -23 30 -76 33 -102 6 -17 -18 -107 -161 -269
-429 -37 -60 -66 -120 -65 -132 3 -46 51 -77 94 -61 14 5 66 36 117 69 l92 61
193 -138 c106 -75 197 -140 201 -144 5 -4 -9 -41 -32 -81 -75 -138 -148 -352
-166 -489 -3 -25 -8 -56 -10 -70 -3 -14 -6 -42 -7 -62 l-2 -38 -106 -1 c-101
-1 -222 -1 -267 0 -16 1 -33 21 -68 81 -44 77 -72 103 -106 96 -28 -6 -48 -18
-55 -34 -8 -20 -15 -414 -7 -454 6 -30 53 -59 85 -50 21 5 68 64 99 125 l19
37 205 0 c157 0 205 -3 205 -12 2 -55 35 -230 56 -297 8 -25 19 -62 25 -81 19
-65 111 -261 141 -301 11 -15 19 -32 17 -37 -4 -11 -313 -240 -334 -249 -7 -2
-52 12 -101 31 -106 43 -145 46 -168 11 -33 -51 -23 -73 99 -209 6 -6 46 -54
89 -106 125 -149 149 -170 182 -164 68 12 77 43 47 167 -12 54 -23 102 -23
106 0 6 36 34 265 200 l70 51 71 -72 c83 -85 141 -135 238 -202 74 -51 249
-146 270 -146 37 0 34 -24 -16 -164 -27 -77 -55 -156 -61 -174 l-11 -33 -85 6
c-47 3 -109 8 -138 10 -40 3 -57 0 -76 -15 -54 -43 -35 -106 41 -132 83 -28
546 -177 562 -179 34 -7 68 11 78 40 18 50 4 69 -98 140 l-98 67 64 173 c35
96 65 175 68 178 2 2 21 0 42 -6 158 -40 424 -47 589 -15 11 2 43 8 70 13 28
5 61 14 75 19 l25 9 57 -201 c32 -110 58 -204 58 -207 0 -3 -38 -33 -85 -67
-82 -60 -103 -84 -99 -109 1 -7 2 -17 3 -23 2 -19 41 -50 62 -50 12 0 128 38
260 85 131 47 242 85 246 85 4 0 20 10 35 23 39 31 44 66 17 101 l-22 28 -113
-5 c-100 -5 -114 -4 -118 11 -24 79 -106 379 -106 387 0 5 33 25 73 44 167 79
340 213 482 373 l50 56 160 -125 c88 -68 164 -128 168 -132 5 -5 -3 -42 -17
-82 -36 -106 -38 -124 -15 -154 27 -33 77 -34 106 -3 52 57 274 373 279 397 8
37 -28 81 -65 81 -17 0 -55 -18 -94 -44 l-65 -43 -171 134 c-95 74 -171 138
-169 141 2 4 26 54 55 112 44 92 94 224 108 285 2 11 11 52 19 90 9 39 19 104
22 145 3 41 7 76 8 77 1 1 115 3 254 5 l253 3 10 -40 c41 -157 55 -202 70
-218 23 -26 75 -25 102 1 20 21 21 29 21 348 l1 326 -24 19 c-13 10 -33 19
-46 19 -44 0 -65 -31 -99 -145 l-34 -110 -256 -3 c-239 -2 -256 -1 -257 15 -3
69 -30 208 -59 307 -35 117 -49 150 -112 275 -45 87 -47 94 -31 107 10 7 54
38 98 69 44 30 128 89 186 130 l107 75 87 -70 c96 -77 135 -88 170 -50 38 42
21 78 -122 265 -5 6 -48 64 -97 130 -49 66 -100 132 -114 148 -40 42 -103 32
-122 -19 -8 -20 -2 -46 34 -134 40 -100 42 -110 27 -123 -35 -30 -382 -267
-391 -267 -6 0 -10 4 -10 8 0 16 -181 191 -255 247 -87 65 -203 135 -296 179
l-66 31 46 144 46 145 125 1 c69 0 135 4 146 8 33 12 49 59 32 94 -12 26 -34
35 -256 109 -134 44 -246 81 -250 82 -4 1 -35 11 -69 22 -49 16 -68 18 -90 9
-34 -13 -43 -25 -43 -65 0 -36 17 -53 142 -144 l75 -54 -45 -141 c-24 -77 -46
-142 -48 -144 -2 -2 -28 1 -56 7 -55 12 -81 16 -183 30 -78 10 -288 6 -373 -7
-71 -11 -81 -13 -152 -30 -24 -5 -45 -9 -45 -8 -2 4 -123 392 -126 406 -2 7
24 36 58 65 81 67 95 101 62 148 -24 33 -47 35 -139 7z"/>
</g>
</svg>
